<svg width="44" height="53" viewBox="0 0 44 53" fill="none" xmlns="http://www.w3.org/2000/svg">
<path d="M22.2405 40.2095C21.0835 40.1945 19.9264 40.1344 18.7693 40.2696C17.1915 40.45 15.9293 41.7122 15.8391 43.26C15.7039 45.4088 16.5604 47.1369 18.1683 48.5194C19.3253 49.5261 20.798 49.9469 22.1504 50.6081C22.8115 51.0138 23.5028 51.3895 24.1339 51.8703C24.5096 52.1558 24.9754 52.3812 25.2158 52.832C26.5232 52.7719 27.8155 52.6668 29.1228 52.5315C31.467 52.261 33.7961 51.9004 36.0652 51.2392C36.7715 51.0288 36.7564 51.0288 36.8165 50.3075C36.9818 48.5795 37.1772 46.8664 37.3425 45.1383C37.5078 43.5004 37.6731 41.8474 37.8384 40.2095C32.8194 40.2095 27.8155 40.2095 22.7965 40.2095C22.6162 40.1945 22.4359 40.2095 22.2405 40.2095Z" fill="url(#paint0_linear_219_258)"/>
<path d="M33.3763 8.41272C33.3763 9.67497 33.3763 10.9372 33.3612 12.2145C33.3162 14.9945 32.3544 17.3988 30.2807 19.2921C28.8532 20.5995 27.1552 21.3358 25.2317 21.5612C24.24 21.6814 23.2332 21.5762 22.2414 21.6363C21.9559 21.6363 21.6854 21.6213 21.3999 21.6213C15.5244 21.6213 9.64892 21.6213 3.77344 21.6213C3.93873 23.2442 4.089 24.8821 4.2543 26.505C4.35948 27.5419 4.4797 28.5937 4.59991 29.6306C4.90045 29.5705 5.21601 29.5705 5.51655 29.5705C10.9713 29.5705 16.426 29.5705 21.8807 29.5705C22.031 29.5705 22.1663 29.5554 22.3165 29.5554C25.7126 29.5554 29.1086 29.5705 32.5047 29.5705C34.6385 29.5705 36.7723 29.5705 38.9061 29.5705C38.9662 29.1046 39.0263 28.6538 39.0714 28.188C39.3269 25.6936 39.5823 23.2141 39.8528 20.7197C40.0782 18.5107 40.3186 16.3018 40.5441 14.0929C40.7394 12.1995 40.9347 10.3061 41.1151 8.41272C38.5455 8.41272 35.9609 8.41272 33.3763 8.41272Z" fill="url(#paint1_linear_219_258)"/>
<path d="M3.83304 18.6461C4.68957 18.6461 5.5461 18.6461 6.40263 18.6461C6.88348 18.601 7.34932 18.571 7.83017 18.571C7.34932 18.586 6.88348 18.601 6.40263 18.6461C7.6799 18.6461 8.95718 18.6461 10.2345 18.6461C9.99403 18.6311 9.7536 18.601 9.51318 18.601C9.7536 18.616 9.99403 18.6311 10.2345 18.6461C10.3397 18.6461 10.4448 18.6461 10.5651 18.6461C10.8506 18.6461 11.1511 18.6461 11.4366 18.6461C11.2863 18.586 11.1511 18.571 11.0008 18.571C11.1511 18.571 11.2863 18.601 11.4366 18.6461C11.8874 18.6461 12.3532 18.6461 12.804 18.6461C13.1196 18.6461 13.4352 18.6461 13.7658 18.6461C14.1715 18.6461 14.5622 18.6461 14.9679 18.6461C15.1332 18.6461 15.2835 18.6461 15.4488 18.6461C15.8996 18.6461 16.3654 18.6461 16.8162 18.6461C16.9514 18.6461 17.0867 18.6461 17.2069 18.6461C17.5225 18.6461 17.8531 18.6461 18.1686 18.6461C18.4241 18.586 18.6795 18.5559 18.92 18.5559C18.6645 18.5559 18.4091 18.586 18.1686 18.6461C18.6795 18.6461 19.1754 18.6461 19.6863 18.6461C19.9268 18.6461 20.1672 18.6461 20.4076 18.6461C20.4527 18.6311 20.4827 18.601 20.5278 18.601C20.4827 18.616 20.4527 18.6311 20.4076 18.6461C20.5879 18.6461 20.7833 18.6461 20.9636 18.6461C21.0988 18.6461 21.2341 18.6461 21.3693 18.6461L21.4144 18.6611L21.4595 18.6461C21.76 18.6461 22.0455 18.6461 22.3461 18.6461C22.9021 18.6461 23.4581 18.6611 24.0291 18.6611C26.9743 18.616 29.4688 16.6325 30.1149 13.7624C30.5207 12.0042 30.2953 10.201 30.3253 8.42786C21.0237 8.42786 11.7371 8.42786 2.43555 8.42786C2.49565 8.93877 2.54073 9.44968 2.60084 9.94556C2.90138 12.8307 3.20191 15.7159 3.50245 18.601C3.48742 18.6311 3.50245 18.6461 3.5325 18.6461C3.60764 18.6461 3.72785 18.6461 3.83304 18.6461ZM21.4144 18.616H21.3994C21.3994 18.616 21.3994 18.616 21.4144 18.616ZM20.7532 18.571C20.7232 18.571 20.7082 18.571 20.6781 18.571C20.7082 18.571 20.7382 18.571 20.7532 18.571ZM20.5579 18.586C20.603 18.571 20.633 18.571 20.6781 18.571C20.648 18.571 20.603 18.571 20.5579 18.586ZM8.32606 18.5559C8.25092 18.5559 8.16076 18.5559 8.08563 18.5559C8.16076 18.571 8.2359 18.5559 8.32606 18.5559Z" fill="url(#paint2_linear_219_258)"/>
<path d="M23.8784 32.5908C23.3375 32.5908 22.7815 32.6058 22.2405 32.6058C22.0301 32.6058 21.8198 32.5908 21.5944 32.5908C16.3199 32.5908 11.0606 32.5908 5.78615 32.5908C5.5908 32.5908 5.38042 32.6058 5.18507 32.6058C5.09491 32.6058 5.00475 32.6209 4.91459 32.6209C4.89956 32.6359 4.89956 32.6509 4.91459 32.666C4.94464 32.666 4.9747 32.681 5.01978 32.696C4.98972 32.681 4.94464 32.666 4.91459 32.666C5.0348 33.838 5.15502 34.9951 5.26021 36.1672C5.48561 38.3611 5.69598 40.555 5.92139 42.764C6.17684 45.2284 6.4323 47.6928 6.70278 50.1421C6.823 51.2391 6.62765 50.9836 7.63444 51.3293C10.4144 52.2459 13.2845 52.5615 16.1847 52.7718C16.7557 52.8169 17.3418 52.7718 17.9128 52.9221C18.3936 52.9221 18.8745 52.9221 19.3554 52.9221C19.3854 52.7268 19.2502 52.6817 19.0999 52.6366C16.5003 51.6298 14.5919 49.8566 13.4799 47.3171C12.5182 45.1082 12.3529 42.8241 13.4799 40.6001C14.4266 38.7368 15.9894 37.6849 18.033 37.3243C18.5289 37.2341 19.0097 37.2341 19.5056 37.2191C20.4373 37.2191 21.369 37.2041 22.3006 37.189C22.4208 37.2041 22.541 37.2191 22.6613 37.2191C27.6502 37.2191 32.624 37.2191 37.6129 37.2191C37.7782 37.2191 37.9586 37.2341 38.1239 37.2491C38.2891 35.7014 38.4394 34.1386 38.6047 32.5908C38.4695 32.5908 38.3342 32.6058 38.199 32.6058C33.4505 32.5908 28.672 32.5758 23.8784 32.5908ZM5.04983 32.711C5.06486 32.7261 5.09491 32.7261 5.10994 32.7261C5.07989 32.7261 5.06486 32.711 5.04983 32.711ZM5.12497 32.7261C5.15502 32.7261 5.17005 32.711 5.18507 32.666C5.17005 32.711 5.13999 32.7261 5.12497 32.7261ZM5.2001 32.6058C5.2001 32.6209 5.18507 32.6359 5.18507 32.6509C5.18507 32.6509 5.2001 32.6359 5.2001 32.6058Z" fill="url(#paint3_linear_219_258)"/>
<path d="M43.7742 5.73799C43.7742 5.54265 43.6991 5.45248 43.4887 5.45248C43.2032 5.43746 42.9177 5.5727 42.6772 5.51259C42.0161 5.37735 41.3549 5.43746 40.6937 5.4074C40.4984 5.39238 40.3782 5.36232 40.3481 5.13692C40.2429 4.28039 40.1227 3.42386 40.0175 2.56734C39.9273 1.92118 39.8672 1.27503 39.7771 0.628877C39.732 0.283261 39.5817 0.087912 39.161 0.087912C37.1624 0.102939 35.1638 0.0428315 33.1653 0.0428315C23.8787 0.0278047 14.6072 0.0127779 5.33562 0.0127779C4.26872 0.0127779 4.16353 -0.212624 4.07337 1.22995C4.01326 1.32011 3.99823 1.4253 4.01326 1.53049C4.0884 1.53049 4.16353 1.53049 4.23866 1.51546C4.26872 1.45535 4.28374 1.41027 4.28374 1.35016C4.28374 1.41027 4.26872 1.47038 4.23866 1.51546C4.16353 1.51546 4.0884 1.51546 4.01326 1.53049C3.98321 1.86108 3.93813 2.19167 3.90807 2.52226C3.83294 2.61242 3.83294 2.70258 3.84797 2.80777C3.81791 3.13836 3.77283 3.45392 3.74278 3.78451C3.63759 4.14515 3.60754 4.5058 3.59251 4.88147C3.66764 4.88147 3.74278 4.88147 3.83294 4.88147C3.9231 4.62601 3.9231 4.37055 3.93813 4.10007C3.9231 4.35553 3.9231 4.62601 3.83294 4.88147C3.75781 4.88147 3.68267 4.88147 3.59251 4.88147C3.57748 4.94157 3.5324 5.00168 3.5324 5.06179C3.59251 5.49757 3.307 5.45248 3.02149 5.45248C2.22507 5.42243 1.42865 5.4074 0.617201 5.39238C0.121317 5.37735 -0.0139248 5.51259 0.00110201 5.99345C0.0161288 6.66966 0.0461824 7.34586 0.0612093 8.0371C0.0612093 8.29255 0.181424 8.35266 0.406826 8.35266C0.947791 8.33763 1.50378 8.33763 2.04475 8.35266C2.16496 8.35266 2.31523 8.27752 2.40539 8.42779C11.707 8.42779 20.9936 8.42779 30.2952 8.42779C31.317 8.42779 32.3538 8.42779 33.3757 8.42779C35.9603 8.42779 38.5449 8.42779 41.1145 8.42779C41.2046 8.27752 41.3549 8.35266 41.4751 8.35266C42.1062 8.35266 42.7223 8.35266 43.3535 8.35266C43.6089 8.35266 43.7592 8.2625 43.7592 7.99202C43.7742 7.22565 43.7742 6.48934 43.7742 5.73799ZM28.2515 0.283261C28.8526 0.283261 29.4537 0.268234 30.0547 0.268234C29.4386 0.268234 28.8526 0.283261 28.2515 0.283261ZM4.28374 1.29006C4.29877 1.16984 4.3138 1.04963 4.32882 0.959467C4.3138 1.04963 4.29877 1.15482 4.28374 1.29006ZM4.35888 0.809199C4.35888 0.839253 4.34385 0.884333 4.34385 0.914387C4.34385 0.884333 4.34385 0.854279 4.35888 0.809199ZM3.96818 3.84462C4.01326 3.499 4.04331 3.13836 4.0884 2.79274C4.04331 3.13836 3.99823 3.499 3.96818 3.84462Z" fill="#FEFEFE"/>
<defs>
<linearGradient id="paint0_linear_219_258" x1="15.8303" y1="46.5013" x2="37.8413" y2="46.5013" gradientUnits="userSpaceOnUse">
<stop stop-color="#00F2F4"/>
<stop offset="1" stop-color="#FF4CE5"/>
</linearGradient>
<linearGradient id="paint1_linear_219_258" x1="3.77961" y1="19.0181" x2="41.124" y2="19.0181" gradientUnits="userSpaceOnUse">
<stop stop-color="#00F2F4"/>
<stop offset="1" stop-color="#FF4CE5"/>
</linearGradient>
<linearGradient id="paint2_linear_219_258" x1="2.41642" y1="13.5364" x2="30.3413" y2="13.5364" gradientUnits="userSpaceOnUse">
<stop stop-color="#00F2F4"/>
<stop offset="1" stop-color="#FF4CE5"/>
</linearGradient>
<linearGradient id="paint3_linear_219_258" x1="4.91621" y1="42.7468" x2="38.6268" y2="42.7468" gradientUnits="userSpaceOnUse">
<stop stop-color="#00F2F4"/>
<stop offset="1" stop-color="#FF4CE5"/>
</linearGradient>
</defs>
</svg>
